<?xml version="1.0" standalone="no"?>
<!DOCTYPE svg PUBLIC "-//W3C//DTD SVG 1.1//EN" "http://www.w3.org/Graphics/SVG/1.1/DTD/svg11.dtd">
<!--Generator: Xara Designer (www.xara.com), SVG filter version: 5.0.0.2-->
<svg stroke-width="0.501" stroke-linejoin="bevel" fill-rule="evenodd" xmlns:xlink="http://www.w3.org/1999/xlink" xmlns="http://www.w3.org/2000/svg" version="1.1" overflow="visible" width="443.772pt" height="153.122pt" viewBox="0 0 443.772 153.122">
 <defs>
  <marker id="DefaultArrow2" markerUnits="strokeWidth" viewBox="0 0 1 1" markerWidth="1" markerHeight="1" overflow="visible" orient="auto">
   <!-- REF_ARROW_STRAIGHT (-2) -->
   <g transform="scale(0.0092592592)">
    <!-- 1/108 -->
    <path d="M -9 54 L -9 -54 L 117 0 z"/>
   </g>
  </marker>
  <marker id="DefaultArrow3" markerUnits="strokeWidth" viewBox="0 0 1 1" markerWidth="1" markerHeight="1" overflow="visible" orient="auto">
   <!-- REF_ARROW_ANGLED -->
   <g transform="scale(0.0092592592)">
    <path d="M -27 54 L -9 0 L -27 -54 L 135 0 z"/>
   </g>
  </marker>
  <marker id="DefaultArrow4" markerUnits="strokeWidth" viewBox="0 0 1 1" markerWidth="1" markerHeight="1" overflow="visible" orient="auto">
   <!-- REF_ARROW_ROUNDED -->
   <g transform="scale(0.0092592592)">
    <path d="M -9,0 L -9,-45 C -9,-51.708 2.808,-56.580 9,-54 L 117,-9 C 120.916,-7.369 126.000,-4.242 126,0 C 126,4.242 120.916,7.369 117,9 L 9,54 C 2.808,56.580 -9,51.708 -9,45 z"/>
   </g>
  </marker>
  <marker id="DefaultArrow5" markerUnits="strokeWidth" viewBox="0 0 1 1" markerWidth="1" markerHeight="1" overflow="visible" orient="auto">
   <!-- REF_ARROW_SPOT -->
   <g transform="scale(0.0092592592)">
    <path d="M -54, 0 C -54,29.807 -29.807,54 0,54 C 29.807,54 54,29.807 54,0 C 54,-29.807 29.807,-54 0,-54 C -29.807,-54 -54,-29.807 -54,0 z"/>
   </g>
  </marker>
  <marker id="DefaultArrow6" markerUnits="strokeWidth" viewBox="0 0 1 1" markerWidth="1" markerHeight="1" overflow="visible" orient="auto">
   <!-- REF_ARROW_DIAMOND -->
   <g transform="scale(0.0092592592)">
    <path d="M -63,0 L 0,63 L 63,0 L 0,-63 z"/>
   </g>
  </marker>
  <marker id="DefaultArrow7" markerUnits="strokeWidth" viewBox="0 0 1 1" markerWidth="1" markerHeight="1" overflow="visible" orient="auto">
   <!-- REF_ARROW_FEATHER -->
   <g transform="scale(0.0092592592)">
    <path d="M 18,-54 L 108,-54 L 63,0 L 108,54 L 18, 54 L -36,0 z"/>
   </g>
  </marker>
  <marker id="DefaultArrow8" markerUnits="strokeWidth" viewBox="0 0 1 1" markerWidth="1" markerHeight="1" overflow="visible" orient="auto">
   <!-- REF_ARROW_FEATHER2 -->
   <g transform="scale(0.0092592592)">
    <path d="M -36,0 L 18,-54 L 54,-54 L 18,-18 L 27,-18 L 63,-54 L 99,-54 L 63,-18 L 72,-18 L 108,-54 L 144,-54 L 90,0 L 144,54 L 108,54 L 72,18 L 63,18 L 99,54 L 63,54 L 27,18 L 18,18 L 54,54 L 18,54 z"/>
   </g>
  </marker>
  <marker id="DefaultArrow9" markerUnits="strokeWidth" viewBox="0 0 1 1" markerWidth="1" markerHeight="1" overflow="visible" orient="auto">
   <!-- REF_ARROW_HOLLOWDIAMOND -->
   <g transform="scale(0.0092592592)">
    <path d="M 0,45 L -45,0 L 0, -45 L 45, 0 z M 0, 63 L-63, 0 L 0, -63 L 63, 0 z"/>
   </g>
  </marker>
  <filter id="StainedFilter">
   <feBlend mode="multiply" in2="BackgroundImage" in="SourceGraphic" result="blend"/>
   <feComposite in="blend" in2="SourceAlpha" operator="in" result="comp"/>
  </filter>
  <filter id="BleachFilter">
   <feBlend mode="screen" in2="BackgroundImage" in="SourceGraphic" result="blend"/>
   <feComposite in="blend" in2="SourceAlpha" operator="in" result="comp"/>
  </filter>
  <filter id="InvertTransparencyBitmapFilter">
   <feComponentTransfer>
    <feFuncR type="gamma" amplitude="1.055" exponent=".416666666" offset="-0.055"/>
    <feFuncG type="gamma" amplitude="1.055" exponent=".416666666" offset="-0.055"/>
    <feFuncB type="gamma" amplitude="1.055" exponent=".416666666" offset="-0.055"/>
   </feComponentTransfer>
   <feComponentTransfer>
    <feFuncR type="linear" slope="-1" intercept="1"/>
    <feFuncG type="linear" slope="-1" intercept="1"/>
    <feFuncB type="linear" slope="-1" intercept="1"/>
    <feFuncA type="linear" slope="1" intercept="0"/>
   </feComponentTransfer>
   <feComponentTransfer>
    <feFuncR type="gamma" amplitude="1" exponent="2.4" offset="0"/>
    <feFuncG type="gamma" amplitude="1" exponent="2.4" offset="0"/>
    <feFuncB type="gamma" amplitude="1" exponent="2.4" offset="0"/>
   </feComponentTransfer>
  </filter>
 </defs>
 <g id="Document" fill="none" stroke="black" font-family="Times New Roman" font-size="16" transform="scale(1 -1)">
  <g id="Spread" transform="translate(0 -153.122)">
   <g id="Layer 1">
    <g id="Group" stroke-linejoin="round" stroke-linecap="round" stroke="#b2b2b2" stroke-width="0.188" fill="#b2b2b2" stroke-miterlimit="79.8403193612775">
     <path d="M 443.301,8.593 L 10.075,8.209" fill="none"/>
     <path d="M 443.301,30.498 L 10.075,30.114" fill="none"/>
     <path d="M 443.301,52.403 L 10.075,52.02" fill="none"/>
     <path d="M 443.301,74.309 L 10.075,73.926" fill="none"/>
     <path d="M 443.301,96.214 L 10.075,95.831" fill="none"/>
     <path d="M 443.301,118.12 L 10.075,117.737" fill="none"/>
     <path d="M 443.301,140.026 L 10.075,139.643" fill="none"/>
    </g>
    <g id="Group_1" stroke-dasharray="1.504 1.504" stroke-dashoffset="0" stroke-linejoin="round" stroke-linecap="square" stroke="#4c4c4c" stroke-width="0.188" fill="#4c4c4c" stroke-miterlimit="79.8403193612775">
     <path d="M 13.252,152.68 L 13.252,7.833" fill="none"/>
     <path d="M 27.655,152.68 L 27.655,7.833" fill="none"/>
     <path d="M 42.058,152.68 L 42.058,7.833" fill="none"/>
     <path d="M 56.462,152.68 L 56.462,7.833" fill="none"/>
     <path d="M 70.865,152.68 L 70.865,7.833" fill="none"/>
     <path d="M 85.269,152.68 L 85.269,7.833" fill="none"/>
     <path d="M 99.672,152.68 L 99.672,7.833" fill="none"/>
     <path d="M 114.076,152.68 L 114.076,7.833" fill="none"/>
     <path d="M 128.479,152.68 L 128.479,7.833" fill="none"/>
     <path d="M 142.883,152.68 L 142.883,7.833" fill="none"/>
     <path d="M 157.286,152.68 L 157.286,7.833" fill="none"/>
     <path d="M 171.69,152.68 L 171.69,7.833" fill="none"/>
     <path d="M 186.093,152.68 L 186.093,7.833" fill="none"/>
     <path d="M 200.497,152.68 L 200.497,7.833" fill="none"/>
     <path d="M 214.9,152.68 L 214.9,7.833" fill="none"/>
     <path d="M 229.304,152.68 L 229.304,7.833" fill="none"/>
     <path d="M 243.707,152.68 L 243.707,7.833" fill="none"/>
     <path d="M 258.111,152.68 L 258.111,7.833" fill="none"/>
     <path d="M 272.514,152.68 L 272.514,7.833" fill="none"/>
     <path d="M 286.918,152.68 L 286.918,7.833" fill="none"/>
     <path d="M 301.321,152.68 L 301.321,7.833" fill="none"/>
     <path d="M 315.725,152.68 L 315.725,7.833" fill="none"/>
     <path d="M 330.128,152.68 L 330.128,7.833" fill="none"/>
     <path d="M 344.532,152.68 L 344.532,7.833" fill="none"/>
     <path d="M 358.935,152.68 L 358.935,7.833" fill="none"/>
     <path d="M 373.339,152.68 L 373.339,7.833" fill="none"/>
     <path d="M 387.742,152.68 L 387.742,7.833" fill="none"/>
     <path d="M 402.146,152.68 L 402.146,7.833" fill="none"/>
     <path d="M 416.549,152.68 L 416.549,7.833" fill="none"/>
     <path d="M 430.953,152.681 L 430.953,7.834" fill="none"/>
    </g>
    <text xml:space="preserve" transform="translate(3.903 1.534) scale(1 -1)" font-size="6" fill="#4c4c4c" font-family="Arial" stroke-linejoin="round" stroke-linecap="round" stroke="none" stroke-width="0.252" stroke-miterlimit="79.8403193612775"><tspan x="0" y="0">0</tspan><tspan x="2.787" y="0">1</tspan><tspan x="5.574" y="0">.</tspan><tspan x="6.691" y="0">1</tspan><tspan x="9.034" y="0">1</tspan><tspan x="11.821" y="0">.</tspan><tspan x="12.938" y="0">1</tspan><tspan x="15.725" y="0">5</tspan><tspan x="18.512" y="0" font-weight="bold" text-decoration="underline"> </tspan></text>
    <path d="M 23.532,0.934 L 23.532,0.934" fill="none" marker-end="none" marker-start="none" stroke-linecap="butt" stroke="#4c4c4c" stroke-width="0.3" stroke-miterlimit="79.8403193612775"/>
    <text xml:space="preserve" transform="translate(32.726 1.534) scale(1 -1)" font-size="6" fill="#4c4c4c" font-family="Arial" stroke-linejoin="round" stroke-linecap="round" stroke="none" stroke-width="0.252" stroke-miterlimit="79.8403193612775"><tspan x="0" y="0">0</tspan><tspan x="2.787" y="0">3</tspan><tspan x="5.574" y="0">.</tspan><tspan x="6.691" y="0">1</tspan><tspan x="9.034" y="0">1</tspan><tspan x="11.821" y="0">.</tspan><tspan x="12.938" y="0">1</tspan><tspan x="15.725" y="0">5</tspan><tspan x="18.512" y="0" font-weight="bold" text-decoration="underline"> </tspan></text>
    <path d="M 52.355,0.934 L 52.355,0.934" fill="none" marker-end="none" marker-start="none" stroke-linecap="butt" stroke="#4c4c4c" stroke-width="0.3" stroke-miterlimit="79.8403193612775"/>
    <text xml:space="preserve" transform="translate(60.9 1.534) scale(1 -1)" font-size="6" fill="#4c4c4c" font-family="Arial" stroke-linejoin="round" stroke-linecap="round" stroke="none" stroke-width="0.252" stroke-miterlimit="79.8403193612775"><tspan x="0" y="0">0</tspan><tspan x="2.787" y="0">5</tspan><tspan x="5.574" y="0">.</tspan><tspan x="6.691" y="0">1</tspan><tspan x="9.034" y="0">1</tspan><tspan x="11.821" y="0">.</tspan><tspan x="12.938" y="0">1</tspan><tspan x="15.725" y="0">5</tspan><tspan x="18.512" y="0" font-weight="bold" text-decoration="underline"> </tspan></text>
    <path d="M 80.529,0.934 L 80.529,0.934" fill="none" marker-end="none" marker-start="none" stroke-linecap="butt" stroke="#4c4c4c" stroke-width="0.3" stroke-miterlimit="79.8403193612775"/>
    <path d="M 13.964,9.807 L 71.033,14.079 L 113.997,29.407 L 128.697,45.682 L 186.147,54.157 L 214.822,55.915 L 330.613,89.467 L 416.488,114.967 L 431.059,120.516" fill="none" stroke="#3ebe70" stroke-width="1.5" stroke-linejoin="round" stroke-linecap="round" stroke-miterlimit="79.8403193612775"/>
    <path d="M 13.405,10.661 C 14.002,11.118 14.857,11.004 15.313,10.407 C 15.77,9.81 15.656,8.955 15.059,8.499 C 14.462,8.042 13.607,8.156 13.151,8.753 C 12.694,9.35 12.808,10.205 13.405,10.661 Z" fill="#3ebe70" stroke="none" stroke-width="0.08" stroke-linejoin="round" stroke-linecap="round" marker-start="none" marker-end="none" stroke-miterlimit="79.8403193612775"/>
    <path d="M 99.049,25.146 C 99.547,25.526 100.261,25.431 100.642,24.933 C 101.022,24.435 100.927,23.721 100.429,23.34 C 99.931,22.96 99.217,23.055 98.836,23.553 C 98.456,24.051 98.551,24.765 99.049,25.146 Z" fill="#3ebe70" stroke="none" stroke-width="0.067" stroke-linejoin="round" stroke-linecap="round" marker-start="none" marker-end="none" stroke-miterlimit="79.8403193612775"/>
    <path d="M 185.569,55.176 C 186.067,55.556 186.781,55.461 187.162,54.963 C 187.542,54.465 187.447,53.751 186.949,53.37 C 186.451,52.99 185.737,53.085 185.356,53.583 C 184.976,54.081 185.071,54.795 185.569,55.176 Z" fill="#3ebe70" stroke="none" stroke-width="0.067" stroke-linejoin="round" stroke-linecap="round" marker-start="none" marker-end="none" stroke-miterlimit="79.8403193612775"/>
    <path d="M 329.629,90.216 C 330.127,90.596 330.841,90.501 331.222,90.003 C 331.602,89.505 331.507,88.791 331.009,88.41 C 330.511,88.03 329.797,88.125 329.416,88.623 C 329.036,89.121 329.131,89.835 329.629,90.216 Z" fill="#3ebe70" stroke="none" stroke-width="0.067" stroke-linejoin="round" stroke-linecap="round" marker-start="none" marker-end="none" stroke-miterlimit="79.8403193612775"/>
    <path d="M 13.504,10.794 L 42.096,14.999 L 70.956,19.559 L 99.696,23.699 L 128.609,27.869 L 172.109,46.197 L 215.076,71.219 L 272.749,80.838 L 315.874,86.978 L 373.39,94.9 L 416.374,107.088 L 431.315,116.099" fill="none" stroke="#dfcd3e" stroke-width="1.5" stroke-linejoin="round" stroke-linecap="round" stroke-miterlimit="79.8403193612775"/>
    <text xml:space="preserve" transform="translate(8.112 28.532) scale(1 -1)" fill="#4c4c4c" font-family="Arial" stroke-linejoin="round" stroke-linecap="round" stroke="none" stroke-width="0.252" stroke-miterlimit="79.8403193612775"><tspan x="-5.562" y="0" font-size="5">20</tspan><tspan x="0" y="0" font-size="5.6" font-weight="bold" text-decoration="underline"> </tspan></text>
    <path d="M 9.668,27.972 L 9.668,27.972" fill="none" marker-end="none" marker-start="none" stroke-linecap="butt" stroke="#4c4c4c" stroke-width="0.28" stroke-miterlimit="79.8403193612775"/>
    <text xml:space="preserve" transform="translate(8.113 50.306) scale(1 -1)" fill="#4c4c4c" font-family="Arial" stroke-linejoin="round" stroke-linecap="round" stroke="none" stroke-width="0.252" stroke-miterlimit="79.8403193612775"><tspan x="-5.562" y="0" font-size="5">40</tspan><tspan x="0" y="0" font-size="5.6" font-weight="bold" text-decoration="underline"> </tspan></text>
    <path d="M 9.669,49.746 L 9.669,49.746" fill="none" marker-end="none" marker-start="none" stroke-linecap="butt" stroke="#4c4c4c" stroke-width="0.28" stroke-miterlimit="79.8403193612775"/>
    <text xml:space="preserve" transform="translate(8.114 72.091) scale(1 -1)" fill="#4c4c4c" font-family="Arial" stroke-linejoin="round" stroke-linecap="round" stroke="none" stroke-width="0.252" stroke-miterlimit="79.8403193612775"><tspan x="-5.562" y="0" font-size="5">60</tspan><tspan x="0" y="0" font-size="5.6" font-weight="bold" text-decoration="underline"> </tspan></text>
    <path d="M 9.67,71.531 L 9.67,71.531" fill="none" marker-end="none" marker-start="none" stroke-linecap="butt" stroke="#4c4c4c" stroke-width="0.28" stroke-miterlimit="79.8403193612775"/>
    <text xml:space="preserve" transform="translate(8.115 94.244) scale(1 -1)" fill="#4c4c4c" font-family="Arial" stroke-linejoin="round" stroke-linecap="round" stroke="none" stroke-width="0.252" stroke-miterlimit="79.8403193612775"><tspan x="-5.562" y="0" font-size="5">80</tspan><tspan x="0" y="0" font-size="5.6" font-weight="bold" text-decoration="underline"> </tspan></text>
    <path d="M 9.671,93.684 L 9.671,93.684" fill="none" marker-end="none" marker-start="none" stroke-linecap="butt" stroke="#4c4c4c" stroke-width="0.28" stroke-miterlimit="79.8403193612775"/>
    <text xml:space="preserve" transform="translate(8.116 115.99) scale(1 -1)" fill="#4c4c4c" font-family="Arial" stroke-linejoin="round" stroke-linecap="round" stroke="none" stroke-width="0.252" stroke-miterlimit="79.8403193612775"><tspan x="-8.343" y="0" font-size="5">100</tspan><tspan x="0" y="0" font-size="5.6" font-weight="bold" text-decoration="underline"> </tspan></text>
    <path d="M 9.672,115.43 L 9.672,115.43" fill="none" marker-end="none" marker-start="none" stroke-linecap="butt" stroke="#4c4c4c" stroke-width="0.28" stroke-miterlimit="79.8403193612775"/>
    <path d="M 12.674,11.833 C 13.271,12.29 14.126,12.176 14.582,11.579 C 15.039,10.982 14.925,10.127 14.328,9.671 C 13.731,9.214 12.876,9.328 12.42,9.925 C 11.963,10.522 12.077,11.377 12.674,11.833 Z" fill="#dfcd3e" stroke="none" stroke-width="0.08" stroke-linejoin="round" stroke-linecap="round" marker-start="none" marker-end="none" stroke-miterlimit="79.8403193612775"/>
    <text xml:space="preserve" transform="translate(8.117 137.92) scale(1 -1)" fill="#4c4c4c" font-family="Arial" stroke-linejoin="round" stroke-linecap="round" stroke="none" stroke-width="0.252" stroke-miterlimit="79.8403193612775"><tspan x="-8.343" y="0" font-size="5">120</tspan><tspan x="0" y="0" font-size="5.6" font-weight="bold" text-decoration="underline"> </tspan></text>
    <path d="M 9.673,137.36 L 9.673,137.36" fill="none" marker-end="none" marker-start="none" stroke-linecap="butt" stroke="#4c4c4c" stroke-width="0.28" stroke-miterlimit="79.8403193612775"/>
    <text xml:space="preserve" transform="translate(89.85 1.534) scale(1 -1)" font-size="6" fill="#4c4c4c" font-family="Arial" stroke-linejoin="round" stroke-linecap="round" stroke="none" stroke-width="0.252" stroke-miterlimit="79.8403193612775"><tspan x="0" y="0">0</tspan><tspan x="2.787" y="0">7</tspan><tspan x="5.574" y="0">.</tspan><tspan x="6.691" y="0">1</tspan><tspan x="9.034" y="0">1</tspan><tspan x="11.821" y="0">.</tspan><tspan x="12.938" y="0">1</tspan><tspan x="15.725" y="0">5</tspan><tspan x="18.512" y="0" font-weight="bold" text-decoration="underline"> </tspan></text>
    <path d="M 109.479,0.934 L 109.479,0.934" fill="none" marker-end="none" marker-start="none" stroke-linecap="butt" stroke="#4c4c4c" stroke-width="0.3" stroke-miterlimit="79.8403193612775"/>
    <text xml:space="preserve" transform="translate(118.674 1.534) scale(1 -1)" font-size="6" fill="#4c4c4c" font-family="Arial" stroke-linejoin="round" stroke-linecap="round" stroke="none" stroke-width="0.252" stroke-miterlimit="79.8403193612775"><tspan x="0" y="0">0</tspan><tspan x="2.787" y="0">9</tspan><tspan x="5.574" y="0">.</tspan><tspan x="6.691" y="0">1</tspan><tspan x="9.034" y="0">1</tspan><tspan x="11.821" y="0">.</tspan><tspan x="12.938" y="0">1</tspan><tspan x="15.725" y="0">5</tspan><tspan x="18.512" y="0" font-weight="bold" text-decoration="underline"> </tspan></text>
    <path d="M 138.303,0.934 L 138.303,0.934" fill="none" marker-end="none" marker-start="none" stroke-linecap="butt" stroke="#4c4c4c" stroke-width="0.3" stroke-miterlimit="79.8403193612775"/>
    <text xml:space="preserve" transform="translate(147.483 1.534) scale(1 -1)" font-size="6" fill="#4c4c4c" font-family="Arial" stroke-linejoin="round" stroke-linecap="round" stroke="none" stroke-width="0.252" stroke-miterlimit="79.8403193612775"><tspan x="0" y="0">1</tspan><tspan x="2.343" y="0">1</tspan><tspan x="5.13" y="0">.</tspan><tspan x="6.247" y="0">1</tspan><tspan x="8.59" y="0">1</tspan><tspan x="11.377" y="0">.</tspan><tspan x="12.494" y="0">1</tspan><tspan x="15.281" y="0">5</tspan><tspan x="18.068" y="0" font-weight="bold" text-decoration="underline"> </tspan></text>
    <path d="M 166.668,0.934 L 166.668,0.934" fill="none" marker-end="none" marker-start="none" stroke-linecap="butt" stroke="#4c4c4c" stroke-width="0.3" stroke-miterlimit="79.8403193612775"/>
    <text xml:space="preserve" transform="translate(176.284 1.534) scale(1 -1)" font-size="6" fill="#4c4c4c" font-family="Arial" stroke-linejoin="round" stroke-linecap="round" stroke="none" stroke-width="0.252" stroke-miterlimit="79.8403193612775"><tspan x="0" y="0">1</tspan><tspan x="2.787" y="0">3</tspan><tspan x="5.574" y="0">.</tspan><tspan x="6.691" y="0">1</tspan><tspan x="9.034" y="0">1</tspan><tspan x="11.821" y="0">.</tspan><tspan x="12.938" y="0">1</tspan><tspan x="15.725" y="0">5</tspan><tspan x="18.512" y="0" font-weight="bold" text-decoration="underline"> </tspan></text>
    <path d="M 195.913,0.934 L 195.913,0.934" fill="none" marker-end="none" marker-start="none" stroke-linecap="butt" stroke="#4c4c4c" stroke-width="0.3" stroke-miterlimit="79.8403193612775"/>
    <text xml:space="preserve" transform="translate(204.937 1.534) scale(1 -1)" font-size="6" fill="#4c4c4c" font-family="Arial" stroke-linejoin="round" stroke-linecap="round" stroke="none" stroke-width="0.252" stroke-miterlimit="79.8403193612775"><tspan x="0" y="0">1</tspan><tspan x="2.787" y="0">5</tspan><tspan x="5.574" y="0">.</tspan><tspan x="6.691" y="0">1</tspan><tspan x="9.034" y="0">1</tspan><tspan x="11.821" y="0">.</tspan><tspan x="12.938" y="0">1</tspan><tspan x="15.725" y="0">5</tspan><tspan x="18.512" y="0" font-weight="bold" text-decoration="underline"> </tspan></text>
    <path d="M 224.566,0.934 L 224.566,0.934" fill="none" marker-end="none" marker-start="none" stroke-linecap="butt" stroke="#4c4c4c" stroke-width="0.3" stroke-miterlimit="79.8403193612775"/>
    <text xml:space="preserve" transform="translate(233.655 1.534) scale(1 -1)" font-size="6" fill="#4c4c4c" font-family="Arial" stroke-linejoin="round" stroke-linecap="round" stroke="none" stroke-width="0.252" stroke-miterlimit="79.8403193612775"><tspan x="0" y="0">1</tspan><tspan x="2.787" y="0">7</tspan><tspan x="5.574" y="0">.</tspan><tspan x="6.691" y="0">1</tspan><tspan x="9.034" y="0">1</tspan><tspan x="11.821" y="0">.</tspan><tspan x="12.938" y="0">1</tspan><tspan x="15.725" y="0">5</tspan><tspan x="18.512" y="0" font-weight="bold" text-decoration="underline"> </tspan></text>
    <path d="M 253.284,0.934 L 253.284,0.934" fill="none" marker-end="none" marker-start="none" stroke-linecap="butt" stroke="#4c4c4c" stroke-width="0.3" stroke-miterlimit="79.8403193612775"/>
    <text xml:space="preserve" transform="translate(262.502 1.534) scale(1 -1)" font-size="6" fill="#4c4c4c" font-family="Arial" stroke-linejoin="round" stroke-linecap="round" stroke="none" stroke-width="0.252" stroke-miterlimit="79.8403193612775"><tspan x="0" y="0">1</tspan><tspan x="2.787" y="0">9</tspan><tspan x="5.574" y="0">.</tspan><tspan x="6.691" y="0">1</tspan><tspan x="9.034" y="0">1</tspan><tspan x="11.821" y="0">.</tspan><tspan x="12.938" y="0">1</tspan><tspan x="15.725" y="0">5</tspan><tspan x="18.512" y="0" font-weight="bold" text-decoration="underline"> </tspan></text>
    <path d="M 282.131,0.934 L 282.131,0.934" fill="none" marker-end="none" marker-start="none" stroke-linecap="butt" stroke="#4c4c4c" stroke-width="0.3" stroke-miterlimit="79.8403193612775"/>
    <text xml:space="preserve" transform="translate(291.414 1.534) scale(1 -1)" font-size="6" fill="#4c4c4c" font-family="Arial" stroke-linejoin="round" stroke-linecap="round" stroke="none" stroke-width="0.252" stroke-miterlimit="79.8403193612775"><tspan x="0" y="0">2</tspan><tspan x="2.787" y="0">1</tspan><tspan x="5.574" y="0">.</tspan><tspan x="6.691" y="0">1</tspan><tspan x="9.034" y="0">1</tspan><tspan x="11.821" y="0">.</tspan><tspan x="12.938" y="0">1</tspan><tspan x="15.725" y="0">5</tspan><tspan x="18.512" y="0" font-weight="bold" text-decoration="underline"> </tspan></text>
    <path d="M 311.043,0.934 L 311.043,0.934" fill="none" marker-end="none" marker-start="none" stroke-linecap="butt" stroke="#4c4c4c" stroke-width="0.3" stroke-miterlimit="79.8403193612775"/>
    <text xml:space="preserve" transform="translate(320.148 1.534) scale(1 -1)" font-size="6" fill="#4c4c4c" font-family="Arial" stroke-linejoin="round" stroke-linecap="round" stroke="none" stroke-width="0.252" stroke-miterlimit="79.8403193612775"><tspan x="0" y="0">2</tspan><tspan x="2.787" y="0">3</tspan><tspan x="5.574" y="0">.</tspan><tspan x="6.691" y="0">1</tspan><tspan x="9.034" y="0">1</tspan><tspan x="11.821" y="0">.</tspan><tspan x="12.938" y="0">1</tspan><tspan x="15.725" y="0">5</tspan><tspan x="18.512" y="0" font-weight="bold" text-decoration="underline"> </tspan></text>
    <path d="M 339.777,0.934 L 339.777,0.934" fill="none" marker-end="none" marker-start="none" stroke-linecap="butt" stroke="#4c4c4c" stroke-width="0.3" stroke-miterlimit="79.8403193612775"/>
    <text xml:space="preserve" transform="translate(348.999 1.534) scale(1 -1)" font-size="6" fill="#4c4c4c" font-family="Arial" stroke-linejoin="round" stroke-linecap="round" stroke="none" stroke-width="0.252" stroke-miterlimit="79.8403193612775"><tspan x="0" y="0">2</tspan><tspan x="2.787" y="0">5</tspan><tspan x="5.574" y="0">.</tspan><tspan x="6.691" y="0">1</tspan><tspan x="9.034" y="0">1</tspan><tspan x="11.821" y="0">.</tspan><tspan x="12.938" y="0">1</tspan><tspan x="15.725" y="0">5</tspan><tspan x="18.512" y="0" font-weight="bold" text-decoration="underline"> </tspan></text>
    <path d="M 368.628,0.934 L 368.628,0.934" fill="none" marker-end="none" marker-start="none" stroke-linecap="butt" stroke="#4c4c4c" stroke-width="0.3" stroke-miterlimit="79.8403193612775"/>
    <text xml:space="preserve" transform="translate(377.658 1.534) scale(1 -1)" font-size="6" fill="#4c4c4c" font-family="Arial" stroke-linejoin="round" stroke-linecap="round" stroke="none" stroke-width="0.252" stroke-miterlimit="79.8403193612775"><tspan x="0" y="0">2</tspan><tspan x="2.787" y="0">7</tspan><tspan x="5.574" y="0">.</tspan><tspan x="6.691" y="0">1</tspan><tspan x="9.034" y="0">1</tspan><tspan x="11.821" y="0">.</tspan><tspan x="12.938" y="0">1</tspan><tspan x="15.725" y="0">5</tspan><tspan x="18.512" y="0" font-weight="bold" text-decoration="underline"> </tspan></text>
    <path d="M 397.287,0.934 L 397.287,0.934" fill="none" marker-end="none" marker-start="none" stroke-linecap="butt" stroke="#4c4c4c" stroke-width="0.3" stroke-miterlimit="79.8403193612775"/>
    <text xml:space="preserve" transform="translate(406.626 1.534) scale(1 -1)" font-size="6" fill="#4c4c4c" font-family="Arial" stroke-linejoin="round" stroke-linecap="round" stroke="none" stroke-width="0.252" stroke-miterlimit="79.8403193612775"><tspan x="0" y="0">2</tspan><tspan x="2.787" y="0">9</tspan><tspan x="5.574" y="0">.</tspan><tspan x="6.691" y="0">1</tspan><tspan x="9.034" y="0">1</tspan><tspan x="11.821" y="0">.</tspan><tspan x="12.938" y="0">1</tspan><tspan x="15.725" y="0">5</tspan><tspan x="18.512" y="0" font-weight="bold" text-decoration="underline"> </tspan></text>
    <path d="M 426.255,0.934 L 426.255,0.934" fill="none" marker-end="none" marker-start="none" stroke-linecap="butt" stroke="#4c4c4c" stroke-width="0.3" stroke-miterlimit="79.8403193612775"/>
    <path d="M 41.329,12.808 C 41.827,13.188 42.541,13.093 42.922,12.595 C 43.302,12.097 43.207,11.383 42.709,11.002 C 42.211,10.622 41.497,10.717 41.116,11.215 C 40.736,11.713 40.831,12.427 41.329,12.808 Z" fill="#3ebe70" stroke="none" stroke-width="0.067" stroke-linejoin="round" stroke-linecap="round" marker-start="none" marker-end="none" stroke-miterlimit="79.8403193612775"/>
    <path d="M 27.042,11.608 C 27.54,11.988 28.254,11.893 28.635,11.395 C 29.015,10.897 28.92,10.183 28.422,9.802 C 27.924,9.422 27.21,9.517 26.829,10.015 C 26.449,10.513 26.544,11.227 27.042,11.608 Z" fill="#3ebe70" stroke="none" stroke-width="0.067" stroke-linejoin="round" stroke-linecap="round" marker-start="none" marker-end="none" stroke-miterlimit="79.8403193612775"/>
    <path d="M 55.879,13.896 C 56.377,14.276 57.091,14.181 57.472,13.683 C 57.852,13.185 57.757,12.471 57.259,12.09 C 56.761,11.71 56.047,11.805 55.666,12.303 C 55.286,12.801 55.381,13.515 55.879,13.896 Z" fill="#3ebe70" stroke="none" stroke-width="0.067" stroke-linejoin="round" stroke-linecap="round" marker-start="none" marker-end="none" stroke-miterlimit="79.8403193612775"/>
    <path d="M 70.129,15.021 C 70.627,15.401 71.341,15.306 71.722,14.808 C 72.102,14.31 72.007,13.596 71.509,13.215 C 71.011,12.835 70.297,12.93 69.916,13.428 C 69.536,13.926 69.631,14.64 70.129,15.021 Z" fill="#3ebe70" stroke="none" stroke-width="0.067" stroke-linejoin="round" stroke-linecap="round" marker-start="none" marker-end="none" stroke-miterlimit="79.8403193612775"/>
    <path d="M 84.529,20.121 C 85.027,20.501 85.741,20.406 86.122,19.908 C 86.502,19.41 86.407,18.696 85.909,18.315 C 85.411,17.935 84.697,18.03 84.316,18.528 C 83.936,19.026 84.031,19.74 84.529,20.121 Z" fill="#3ebe70" stroke="none" stroke-width="0.067" stroke-linejoin="round" stroke-linecap="round" marker-start="none" marker-end="none" stroke-miterlimit="79.8403193612775"/>
    <path d="M 113.449,30.456 C 113.947,30.836 114.661,30.741 115.042,30.243 C 115.422,29.745 115.327,29.031 114.829,28.65 C 114.331,28.27 113.617,28.365 113.236,28.863 C 112.856,29.361 112.951,30.075 113.449,30.456 Z" fill="#3ebe70" stroke="none" stroke-width="0.067" stroke-linejoin="round" stroke-linecap="round" marker-start="none" marker-end="none" stroke-miterlimit="79.8403193612775"/>
    <path d="M 127.969,46.356 C 128.467,46.736 129.181,46.641 129.562,46.143 C 129.942,45.645 129.847,44.931 129.349,44.55 C 128.851,44.17 128.137,44.265 127.756,44.763 C 127.376,45.261 127.471,45.975 127.969,46.356 Z" fill="#3ebe70" stroke="none" stroke-width="0.067" stroke-linejoin="round" stroke-linecap="round" marker-start="none" marker-end="none" stroke-miterlimit="79.8403193612775"/>
    <path d="M 142.249,48.696 C 142.747,49.076 143.461,48.981 143.842,48.483 C 144.222,47.985 144.127,47.271 143.629,46.89 C 143.131,46.51 142.417,46.605 142.036,47.103 C 141.656,47.601 141.751,48.315 142.249,48.696 Z" fill="#3ebe70" stroke="none" stroke-width="0.067" stroke-linejoin="round" stroke-linecap="round" marker-start="none" marker-end="none" stroke-miterlimit="79.8403193612775"/>
    <path d="M 156.649,50.856 C 157.147,51.236 157.861,51.141 158.242,50.643 C 158.622,50.145 158.527,49.431 158.029,49.05 C 157.531,48.67 156.817,48.765 156.436,49.263 C 156.056,49.761 156.151,50.475 156.649,50.856 Z" fill="#3ebe70" stroke="none" stroke-width="0.067" stroke-linejoin="round" stroke-linecap="round" marker-start="none" marker-end="none" stroke-miterlimit="79.8403193612775"/>
    <path d="M 171.109,53.016 C 171.607,53.396 172.321,53.301 172.702,52.803 C 173.082,52.305 172.987,51.591 172.489,51.21 C 171.991,50.83 171.277,50.925 170.896,51.423 C 170.516,51.921 170.611,52.635 171.109,53.016 Z" fill="#3ebe70" stroke="none" stroke-width="0.067" stroke-linejoin="round" stroke-linecap="round" marker-start="none" marker-end="none" stroke-miterlimit="79.8403193612775"/>
    <path d="M 199.849,55.896 C 200.347,56.276 201.061,56.181 201.442,55.683 C 201.822,55.185 201.727,54.471 201.229,54.09 C 200.731,53.71 200.017,53.805 199.636,54.303 C 199.256,54.801 199.351,55.515 199.849,55.896 Z" fill="#3ebe70" stroke="none" stroke-width="0.067" stroke-linejoin="round" stroke-linecap="round" marker-start="none" marker-end="none" stroke-miterlimit="79.8403193612775"/>
    <path d="M 214.309,56.856 C 214.807,57.236 215.521,57.141 215.902,56.643 C 216.282,56.145 216.187,55.431 215.689,55.05 C 215.191,54.67 214.477,54.765 214.096,55.263 C 213.716,55.761 213.811,56.475 214.309,56.856 Z" fill="#3ebe70" stroke="none" stroke-width="0.067" stroke-linejoin="round" stroke-linecap="round" marker-start="none" marker-end="none" stroke-miterlimit="79.8403193612775"/>
    <path d="M 228.589,60.996 C 229.087,61.376 229.801,61.281 230.182,60.783 C 230.562,60.285 230.467,59.571 229.969,59.19 C 229.471,58.81 228.757,58.905 228.376,59.403 C 227.996,59.901 228.091,60.615 228.589,60.996 Z" fill="#3ebe70" stroke="none" stroke-width="0.067" stroke-linejoin="round" stroke-linecap="round" marker-start="none" marker-end="none" stroke-miterlimit="79.8403193612775"/>
    <path d="M 243.049,65.196 C 243.547,65.576 244.261,65.481 244.642,64.983 C 245.022,64.485 244.927,63.771 244.429,63.39 C 243.931,63.01 243.217,63.105 242.836,63.603 C 242.456,64.101 242.551,64.815 243.049,65.196 Z" fill="#3ebe70" stroke="none" stroke-width="0.067" stroke-linejoin="round" stroke-linecap="round" marker-start="none" marker-end="none" stroke-miterlimit="79.8403193612775"/>
    <path d="M 257.449,69.396 C 257.947,69.776 258.661,69.681 259.042,69.183 C 259.422,68.685 259.327,67.971 258.829,67.59 C 258.331,67.21 257.617,67.305 257.236,67.803 C 256.856,68.301 256.951,69.015 257.449,69.396 Z" fill="#3ebe70" stroke="none" stroke-width="0.067" stroke-linejoin="round" stroke-linecap="round" marker-start="none" marker-end="none" stroke-miterlimit="79.8403193612775"/>
    <path d="M 271.849,73.536 C 272.347,73.916 273.061,73.821 273.442,73.323 C 273.822,72.825 273.727,72.111 273.229,71.73 C 272.731,71.35 272.017,71.445 271.636,71.943 C 271.256,72.441 271.351,73.155 271.849,73.536 Z" fill="#3ebe70" stroke="none" stroke-width="0.067" stroke-linejoin="round" stroke-linecap="round" marker-start="none" marker-end="none" stroke-miterlimit="79.8403193612775"/>
    <path d="M 300.709,81.816 C 301.207,82.196 301.921,82.101 302.302,81.603 C 302.682,81.105 302.587,80.391 302.089,80.01 C 301.591,79.63 300.877,79.725 300.496,80.223 C 300.116,80.721 300.211,81.435 300.709,81.816 Z" fill="#3ebe70" stroke="none" stroke-width="0.067" stroke-linejoin="round" stroke-linecap="round" marker-start="none" marker-end="none" stroke-miterlimit="79.8403193612775"/>
    <path d="M 315.049,85.956 C 315.547,86.336 316.261,86.241 316.642,85.743 C 317.022,85.245 316.927,84.531 316.429,84.15 C 315.931,83.77 315.217,83.865 314.836,84.363 C 314.456,84.861 314.551,85.575 315.049,85.956 Z" fill="#3ebe70" stroke="none" stroke-width="0.067" stroke-linejoin="round" stroke-linecap="round" marker-start="none" marker-end="none" stroke-miterlimit="79.8403193612775"/>
    <path d="M 343.909,94.536 C 344.407,94.916 345.121,94.821 345.502,94.323 C 345.882,93.825 345.787,93.111 345.289,92.73 C 344.791,92.35 344.077,92.445 343.696,92.943 C 343.316,93.441 343.411,94.155 343.909,94.536 Z" fill="#3ebe70" stroke="none" stroke-width="0.067" stroke-linejoin="round" stroke-linecap="round" marker-start="none" marker-end="none" stroke-miterlimit="79.8403193612775"/>
    <path d="M 358.249,98.736 C 358.747,99.116 359.461,99.021 359.842,98.523 C 360.222,98.025 360.127,97.311 359.629,96.93 C 359.131,96.55 358.417,96.645 358.036,97.143 C 357.656,97.641 357.751,98.355 358.249,98.736 Z" fill="#3ebe70" stroke="none" stroke-width="0.067" stroke-linejoin="round" stroke-linecap="round" marker-start="none" marker-end="none" stroke-miterlimit="79.8403193612775"/>
    <path d="M 372.709,103.056 C 373.207,103.436 373.921,103.341 374.302,102.843 C 374.682,102.345 374.587,101.631 374.089,101.25 C 373.591,100.87 372.877,100.965 372.496,101.463 C 372.116,101.961 372.211,102.675 372.709,103.056 Z" fill="#3ebe70" stroke="none" stroke-width="0.067" stroke-linejoin="round" stroke-linecap="round" marker-start="none" marker-end="none" stroke-miterlimit="79.8403193612775"/>
    <path d="M 387.109,107.376 C 387.607,107.756 388.321,107.661 388.702,107.163 C 389.082,106.665 388.987,105.951 388.489,105.57 C 387.991,105.19 387.277,105.285 386.896,105.783 C 386.516,106.281 386.611,106.995 387.109,107.376 Z" fill="#3ebe70" stroke="none" stroke-width="0.067" stroke-linejoin="round" stroke-linecap="round" marker-start="none" marker-end="none" stroke-miterlimit="79.8403193612775"/>
    <path d="M 401.509,111.636 C 402.007,112.016 402.721,111.921 403.102,111.423 C 403.482,110.925 403.387,110.211 402.889,109.83 C 402.391,109.45 401.677,109.545 401.296,110.043 C 400.916,110.541 401.011,111.255 401.509,111.636 Z" fill="#3ebe70" stroke="none" stroke-width="0.067" stroke-linejoin="round" stroke-linecap="round" marker-start="none" marker-end="none" stroke-miterlimit="79.8403193612775"/>
    <path d="M 415.849,115.896 C 416.347,116.276 417.061,116.181 417.442,115.683 C 417.822,115.185 417.727,114.471 417.229,114.09 C 416.731,113.71 416.017,113.805 415.636,114.303 C 415.256,114.801 415.351,115.515 415.849,115.896 Z" fill="#3ebe70" stroke="none" stroke-width="0.067" stroke-linejoin="round" stroke-linecap="round" marker-start="none" marker-end="none" stroke-miterlimit="79.8403193612775"/>
    <path d="M 430.167,121.591 C 430.764,122.048 431.619,121.934 432.075,121.337 C 432.532,120.74 432.418,119.885 431.821,119.429 C 431.224,118.972 430.369,119.086 429.913,119.683 C 429.456,120.28 429.57,121.135 430.167,121.591 Z" fill="#3ebe70" stroke="none" stroke-width="0.08" stroke-linejoin="round" stroke-linecap="round" marker-start="none" marker-end="none" stroke-miterlimit="79.8403193612775"/>
    <path d="M 26.969,13.841 C 27.467,14.221 28.181,14.126 28.562,13.628 C 28.942,13.13 28.847,12.416 28.349,12.035 C 27.851,11.655 27.137,11.75 26.756,12.248 C 26.376,12.746 26.471,13.46 26.969,13.841 Z" fill="#dfcd3e" stroke="none" stroke-width="0.067" stroke-linejoin="round" stroke-linecap="round" marker-start="none" marker-end="none" stroke-miterlimit="79.8403193612775"/>
    <path d="M 41.383,15.901 C 41.881,16.281 42.595,16.186 42.976,15.688 C 43.356,15.19 43.261,14.476 42.763,14.095 C 42.265,13.715 41.551,13.81 41.17,14.308 C 40.79,14.806 40.885,15.52 41.383,15.901 Z" fill="#dfcd3e" stroke="none" stroke-width="0.067" stroke-linejoin="round" stroke-linecap="round" marker-start="none" marker-end="none" stroke-miterlimit="79.8403193612775"/>
    <path d="M 55.821,18.175 C 56.319,18.555 57.033,18.46 57.414,17.962 C 57.794,17.464 57.699,16.75 57.201,16.369 C 56.703,15.989 55.989,16.084 55.608,16.582 C 55.228,17.08 55.323,17.794 55.821,18.175 Z" fill="#dfcd3e" stroke="none" stroke-width="0.067" stroke-linejoin="round" stroke-linecap="round" marker-start="none" marker-end="none" stroke-miterlimit="79.8403193612775"/>
    <path d="M 70.188,20.448 C 70.686,20.828 71.4,20.733 71.781,20.235 C 72.161,19.737 72.066,19.023 71.568,18.642 C 71.07,18.262 70.356,18.357 69.975,18.855 C 69.595,19.353 69.69,20.067 70.188,20.448 Z" fill="#dfcd3e" stroke="none" stroke-width="0.067" stroke-linejoin="round" stroke-linecap="round" marker-start="none" marker-end="none" stroke-miterlimit="79.8403193612775"/>
    <path d="M 84.648,22.608 C 85.146,22.988 85.86,22.893 86.241,22.395 C 86.621,21.897 86.526,21.183 86.028,20.802 C 85.53,20.422 84.816,20.517 84.435,21.015 C 84.055,21.513 84.15,22.227 84.648,22.608 Z" fill="#dfcd3e" stroke="none" stroke-width="0.067" stroke-linejoin="round" stroke-linecap="round" marker-start="none" marker-end="none" stroke-miterlimit="79.8403193612775"/>
    <path d="M 99.168,24.528 C 99.666,24.908 100.38,24.813 100.761,24.315 C 101.141,23.817 101.046,23.103 100.548,22.722 C 100.05,22.342 99.336,22.437 98.955,22.935 C 98.575,23.433 98.67,24.147 99.168,24.528 Z" fill="#dfcd3e" stroke="none" stroke-width="0.067" stroke-linejoin="round" stroke-linecap="round" marker-start="none" marker-end="none" stroke-miterlimit="79.8403193612775"/>
    <path d="M 113.448,26.628 C 113.946,27.008 114.66,26.913 115.041,26.415 C 115.421,25.917 115.326,25.203 114.828,24.822 C 114.33,24.442 113.616,24.537 113.235,25.035 C 112.855,25.533 112.95,26.247 113.448,26.628 Z" fill="#dfcd3e" stroke="none" stroke-width="0.067" stroke-linejoin="round" stroke-linecap="round" marker-start="none" marker-end="none" stroke-miterlimit="79.8403193612775"/>
    <path d="M 127.848,28.728 C 128.346,29.108 129.06,29.013 129.441,28.515 C 129.821,28.017 129.726,27.303 129.228,26.922 C 128.73,26.542 128.016,26.637 127.635,27.135 C 127.255,27.633 127.35,28.347 127.848,28.728 Z" fill="#dfcd3e" stroke="none" stroke-width="0.067" stroke-linejoin="round" stroke-linecap="round" marker-start="none" marker-end="none" stroke-miterlimit="79.8403193612775"/>
    <path d="M 142.308,34.908 C 142.806,35.288 143.52,35.193 143.901,34.695 C 144.281,34.197 144.186,33.483 143.688,33.102 C 143.19,32.722 142.476,32.817 142.095,33.315 C 141.715,33.813 141.81,34.527 142.308,34.908 Z" fill="#dfcd3e" stroke="none" stroke-width="0.067" stroke-linejoin="round" stroke-linecap="round" marker-start="none" marker-end="none" stroke-miterlimit="79.8403193612775"/>
    <path d="M 156.768,41.028 C 157.266,41.408 157.98,41.313 158.361,40.815 C 158.741,40.317 158.646,39.603 158.148,39.222 C 157.65,38.842 156.936,38.937 156.555,39.435 C 156.175,39.933 156.27,40.647 156.768,41.028 Z" fill="#dfcd3e" stroke="none" stroke-width="0.067" stroke-linejoin="round" stroke-linecap="round" marker-start="none" marker-end="none" stroke-miterlimit="79.8403193612775"/>
    <path d="M 171.048,46.968 C 171.546,47.348 172.26,47.253 172.641,46.755 C 173.021,46.257 172.926,45.543 172.428,45.162 C 171.93,44.782 171.216,44.877 170.835,45.375 C 170.455,45.873 170.55,46.587 171.048,46.968 Z" fill="#dfcd3e" stroke="none" stroke-width="0.067" stroke-linejoin="round" stroke-linecap="round" marker-start="none" marker-end="none" stroke-miterlimit="79.8403193612775"/>
    <path d="M 185.628,55.608 C 186.126,55.988 186.84,55.893 187.221,55.395 C 187.601,54.897 187.506,54.183 187.008,53.802 C 186.51,53.422 185.796,53.517 185.415,54.015 C 185.035,54.513 185.13,55.227 185.628,55.608 Z" fill="#dfcd3e" stroke="none" stroke-width="0.067" stroke-linejoin="round" stroke-linecap="round" marker-start="none" marker-end="none" stroke-miterlimit="79.8403193612775"/>
    <path d="M 199.848,63.648 C 200.346,64.028 201.06,63.933 201.441,63.435 C 201.821,62.937 201.726,62.223 201.228,61.842 C 200.73,61.462 200.016,61.557 199.635,62.055 C 199.255,62.553 199.35,63.267 199.848,63.648 Z" fill="#dfcd3e" stroke="none" stroke-width="0.067" stroke-linejoin="round" stroke-linecap="round" marker-start="none" marker-end="none" stroke-miterlimit="79.8403193612775"/>
    <path d="M 214.308,72.048 C 214.806,72.428 215.52,72.333 215.901,71.835 C 216.281,71.337 216.186,70.623 215.688,70.242 C 215.19,69.862 214.476,69.957 214.095,70.455 C 213.715,70.953 213.81,71.667 214.308,72.048 Z" fill="#dfcd3e" stroke="none" stroke-width="0.067" stroke-linejoin="round" stroke-linecap="round" marker-start="none" marker-end="none" stroke-miterlimit="79.8403193612775"/>
    <path d="M 228.708,74.388 C 229.206,74.768 229.92,74.673 230.301,74.175 C 230.681,73.677 230.586,72.963 230.088,72.582 C 229.59,72.202 228.876,72.297 228.495,72.795 C 228.115,73.293 228.21,74.007 228.708,74.388 Z" fill="#dfcd3e" stroke="none" stroke-width="0.067" stroke-linejoin="round" stroke-linecap="round" marker-start="none" marker-end="none" stroke-miterlimit="79.8403193612775"/>
    <path d="M 243.048,76.908 C 243.546,77.288 244.26,77.193 244.641,76.695 C 245.021,76.197 244.926,75.483 244.428,75.102 C 243.93,74.722 243.216,74.817 242.835,75.315 C 242.455,75.813 242.55,76.527 243.048,76.908 Z" fill="#dfcd3e" stroke="none" stroke-width="0.067" stroke-linejoin="round" stroke-linecap="round" marker-start="none" marker-end="none" stroke-miterlimit="79.8403193612775"/>
    <path d="M 257.388,79.248 C 257.886,79.628 258.6,79.533 258.981,79.035 C 259.361,78.537 259.266,77.823 258.768,77.442 C 258.27,77.062 257.556,77.157 257.175,77.655 C 256.795,78.153 256.89,78.867 257.388,79.248 Z" fill="#dfcd3e" stroke="none" stroke-width="0.067" stroke-linejoin="round" stroke-linecap="round" marker-start="none" marker-end="none" stroke-miterlimit="79.8403193612775"/>
    <path d="M 271.848,81.648 C 272.346,82.028 273.06,81.933 273.441,81.435 C 273.821,80.937 273.726,80.223 273.228,79.842 C 272.73,79.462 272.016,79.557 271.635,80.055 C 271.255,80.553 271.35,81.267 271.848,81.648 Z" fill="#dfcd3e" stroke="none" stroke-width="0.067" stroke-linejoin="round" stroke-linecap="round" marker-start="none" marker-end="none" stroke-miterlimit="79.8403193612775"/>
    <path d="M 300.648,85.728 C 301.146,86.108 301.86,86.013 302.241,85.515 C 302.621,85.017 302.526,84.303 302.028,83.922 C 301.53,83.542 300.816,83.637 300.435,84.135 C 300.055,84.633 300.15,85.347 300.648,85.728 Z" fill="#dfcd3e" stroke="none" stroke-width="0.067" stroke-linejoin="round" stroke-linecap="round" marker-start="none" marker-end="none" stroke-miterlimit="79.8403193612775"/>
    <path d="M 315.048,87.888 C 315.546,88.268 316.26,88.173 316.641,87.675 C 317.021,87.177 316.926,86.463 316.428,86.082 C 315.93,85.702 315.216,85.797 314.835,86.295 C 314.455,86.793 314.55,87.507 315.048,87.888 Z" fill="#dfcd3e" stroke="none" stroke-width="0.067" stroke-linejoin="round" stroke-linecap="round" marker-start="none" marker-end="none" stroke-miterlimit="79.8403193612775"/>
    <path d="M 329.628,89.748 C 330.126,90.128 330.84,90.033 331.221,89.535 C 331.601,89.037 331.506,88.323 331.008,87.942 C 330.51,87.562 329.796,87.657 329.415,88.155 C 329.035,88.653 329.13,89.367 329.628,89.748 Z" fill="#dfcd3e" stroke="none" stroke-width="0.067" stroke-linejoin="round" stroke-linecap="round" marker-start="none" marker-end="none" stroke-miterlimit="79.8403193612775"/>
    <path d="M 343.848,91.848 C 344.346,92.228 345.06,92.133 345.441,91.635 C 345.821,91.137 345.726,90.423 345.228,90.042 C 344.73,89.662 344.016,89.757 343.635,90.255 C 343.255,90.753 343.35,91.467 343.848,91.848 Z" fill="#dfcd3e" stroke="none" stroke-width="0.067" stroke-linejoin="round" stroke-linecap="round" marker-start="none" marker-end="none" stroke-miterlimit="79.8403193612775"/>
    <path d="M 358.248,93.828 C 358.746,94.208 359.46,94.113 359.841,93.615 C 360.221,93.117 360.126,92.403 359.628,92.022 C 359.13,91.642 358.416,91.737 358.035,92.235 C 357.655,92.733 357.75,93.447 358.248,93.828 Z" fill="#dfcd3e" stroke="none" stroke-width="0.067" stroke-linejoin="round" stroke-linecap="round" marker-start="none" marker-end="none" stroke-miterlimit="79.8403193612775"/>
    <path d="M 372.768,95.808 C 373.266,96.188 373.98,96.093 374.361,95.595 C 374.741,95.097 374.646,94.383 374.148,94.002 C 373.65,93.622 372.936,93.717 372.555,94.215 C 372.175,94.713 372.27,95.427 372.768,95.808 Z" fill="#dfcd3e" stroke="none" stroke-width="0.067" stroke-linejoin="round" stroke-linecap="round" marker-start="none" marker-end="none" stroke-miterlimit="79.8403193612775"/>
    <path d="M 387.048,99.948 C 387.546,100.328 388.26,100.233 388.641,99.735 C 389.021,99.237 388.926,98.523 388.428,98.142 C 387.93,97.762 387.216,97.857 386.835,98.355 C 386.455,98.853 386.55,99.567 387.048,99.948 Z" fill="#dfcd3e" stroke="none" stroke-width="0.067" stroke-linejoin="round" stroke-linecap="round" marker-start="none" marker-end="none" stroke-miterlimit="79.8403193612775"/>
    <path d="M 401.508,103.908 C 402.006,104.288 402.72,104.193 403.101,103.695 C 403.481,103.197 403.386,102.483 402.888,102.102 C 402.39,101.722 401.676,101.817 401.295,102.315 C 400.915,102.813 401.01,103.527 401.508,103.908 Z" fill="#dfcd3e" stroke="none" stroke-width="0.067" stroke-linejoin="round" stroke-linecap="round" marker-start="none" marker-end="none" stroke-miterlimit="79.8403193612775"/>
    <path d="M 415.848,108.048 C 416.346,108.428 417.06,108.333 417.441,107.835 C 417.821,107.337 417.726,106.623 417.228,106.242 C 416.73,105.862 416.016,105.957 415.635,106.455 C 415.255,106.953 415.35,107.667 415.848,108.048 Z" fill="#dfcd3e" stroke="none" stroke-width="0.067" stroke-linejoin="round" stroke-linecap="round" marker-start="none" marker-end="none" stroke-miterlimit="79.8403193612775"/>
    <path d="M 430.427,117.108 C 430.925,117.488 431.639,117.393 432.02,116.895 C 432.4,116.397 432.305,115.683 431.807,115.302 C 431.309,114.922 430.595,115.017 430.214,115.515 C 429.834,116.013 429.929,116.727 430.427,117.108 Z" fill="#dfcd3e" stroke="none" stroke-width="0.067" stroke-linejoin="round" stroke-linecap="round" marker-start="none" marker-end="none" stroke-miterlimit="79.8403193612775"/>
    <path d="M 286.32,83.822 C 286.796,84.186 287.479,84.095 287.843,83.619 C 288.207,83.143 288.116,82.46 287.64,82.096 C 287.164,81.732 286.481,81.823 286.117,82.299 C 285.753,82.775 285.844,83.458 286.32,83.822 Z" fill="#dfcd3e" stroke-width="0.061" stroke="none" stroke-linejoin="round" stroke-linecap="round" marker-start="none" marker-end="none" stroke-miterlimit="79.8403193612775"/>
    <path d="M 286.321,77.882 C 286.797,78.246 287.48,78.155 287.844,77.679 C 288.208,77.203 288.117,76.52 287.641,76.156 C 287.165,75.792 286.482,75.883 286.118,76.359 C 285.754,76.835 285.845,77.518 286.321,77.882 Z" fill="#3ebe70" stroke-width="0.061" stroke="none" stroke-linejoin="round" stroke-linecap="round" marker-start="none" marker-end="none" stroke-miterlimit="79.8403193612775"/>
   </g>
  </g>
 </g>
</svg>
