<?xml version="1.0" standalone="no"?>
<!DOCTYPE svg PUBLIC "-//W3C//DTD SVG 1.1//EN" "http://www.w3.org/Graphics/SVG/1.1/DTD/svg11.dtd">
<!--Generator: Xara Designer (www.xara.com), SVG filter version: 5.0.0.2-->
<svg stroke-width="0.501" stroke-linejoin="bevel" fill-rule="evenodd" xmlns:xlink="http://www.w3.org/1999/xlink" xmlns="http://www.w3.org/2000/svg" version="1.1" overflow="visible" width="443.772pt" height="164.555pt" viewBox="0 0 443.772 164.555">
 <defs>
  <marker id="DefaultArrow2" markerUnits="strokeWidth" viewBox="0 0 1 1" markerWidth="1" markerHeight="1" overflow="visible" orient="auto">
   <!-- REF_ARROW_STRAIGHT (-2) -->
   <g transform="scale(0.0092592592)">
    <!-- 1/108 -->
    <path d="M -9 54 L -9 -54 L 117 0 z"/>
   </g>
  </marker>
  <marker id="DefaultArrow3" markerUnits="strokeWidth" viewBox="0 0 1 1" markerWidth="1" markerHeight="1" overflow="visible" orient="auto">
   <!-- REF_ARROW_ANGLED -->
   <g transform="scale(0.0092592592)">
    <path d="M -27 54 L -9 0 L -27 -54 L 135 0 z"/>
   </g>
  </marker>
  <marker id="DefaultArrow4" markerUnits="strokeWidth" viewBox="0 0 1 1" markerWidth="1" markerHeight="1" overflow="visible" orient="auto">
   <!-- REF_ARROW_ROUNDED -->
   <g transform="scale(0.0092592592)">
    <path d="M -9,0 L -9,-45 C -9,-51.708 2.808,-56.580 9,-54 L 117,-9 C 120.916,-7.369 126.000,-4.242 126,0 C 126,4.242 120.916,7.369 117,9 L 9,54 C 2.808,56.580 -9,51.708 -9,45 z"/>
   </g>
  </marker>
  <marker id="DefaultArrow5" markerUnits="strokeWidth" viewBox="0 0 1 1" markerWidth="1" markerHeight="1" overflow="visible" orient="auto">
   <!-- REF_ARROW_SPOT -->
   <g transform="scale(0.0092592592)">
    <path d="M -54, 0 C -54,29.807 -29.807,54 0,54 C 29.807,54 54,29.807 54,0 C 54,-29.807 29.807,-54 0,-54 C -29.807,-54 -54,-29.807 -54,0 z"/>
   </g>
  </marker>
  <marker id="DefaultArrow6" markerUnits="strokeWidth" viewBox="0 0 1 1" markerWidth="1" markerHeight="1" overflow="visible" orient="auto">
   <!-- REF_ARROW_DIAMOND -->
   <g transform="scale(0.0092592592)">
    <path d="M -63,0 L 0,63 L 63,0 L 0,-63 z"/>
   </g>
  </marker>
  <marker id="DefaultArrow7" markerUnits="strokeWidth" viewBox="0 0 1 1" markerWidth="1" markerHeight="1" overflow="visible" orient="auto">
   <!-- REF_ARROW_FEATHER -->
   <g transform="scale(0.0092592592)">
    <path d="M 18,-54 L 108,-54 L 63,0 L 108,54 L 18, 54 L -36,0 z"/>
   </g>
  </marker>
  <marker id="DefaultArrow8" markerUnits="strokeWidth" viewBox="0 0 1 1" markerWidth="1" markerHeight="1" overflow="visible" orient="auto">
   <!-- REF_ARROW_FEATHER2 -->
   <g transform="scale(0.0092592592)">
    <path d="M -36,0 L 18,-54 L 54,-54 L 18,-18 L 27,-18 L 63,-54 L 99,-54 L 63,-18 L 72,-18 L 108,-54 L 144,-54 L 90,0 L 144,54 L 108,54 L 72,18 L 63,18 L 99,54 L 63,54 L 27,18 L 18,18 L 54,54 L 18,54 z"/>
   </g>
  </marker>
  <marker id="DefaultArrow9" markerUnits="strokeWidth" viewBox="0 0 1 1" markerWidth="1" markerHeight="1" overflow="visible" orient="auto">
   <!-- REF_ARROW_HOLLOWDIAMOND -->
   <g transform="scale(0.0092592592)">
    <path d="M 0,45 L -45,0 L 0, -45 L 45, 0 z M 0, 63 L-63, 0 L 0, -63 L 63, 0 z"/>
   </g>
  </marker>
  <filter id="StainedFilter">
   <feBlend mode="multiply" in2="BackgroundImage" in="SourceGraphic" result="blend"/>
   <feComposite in="blend" in2="SourceAlpha" operator="in" result="comp"/>
  </filter>
  <filter id="BleachFilter">
   <feBlend mode="screen" in2="BackgroundImage" in="SourceGraphic" result="blend"/>
   <feComposite in="blend" in2="SourceAlpha" operator="in" result="comp"/>
  </filter>
  <filter id="InvertTransparencyBitmapFilter">
   <feComponentTransfer>
    <feFuncR type="gamma" amplitude="1.055" exponent=".416666666" offset="-0.055"/>
    <feFuncG type="gamma" amplitude="1.055" exponent=".416666666" offset="-0.055"/>
    <feFuncB type="gamma" amplitude="1.055" exponent=".416666666" offset="-0.055"/>
   </feComponentTransfer>
   <feComponentTransfer>
    <feFuncR type="linear" slope="-1" intercept="1"/>
    <feFuncG type="linear" slope="-1" intercept="1"/>
    <feFuncB type="linear" slope="-1" intercept="1"/>
    <feFuncA type="linear" slope="1" intercept="0"/>
   </feComponentTransfer>
   <feComponentTransfer>
    <feFuncR type="gamma" amplitude="1" exponent="2.4" offset="0"/>
    <feFuncG type="gamma" amplitude="1" exponent="2.4" offset="0"/>
    <feFuncB type="gamma" amplitude="1" exponent="2.4" offset="0"/>
   </feComponentTransfer>
  </filter>
 </defs>
 <g id="Document" fill="none" stroke="black" font-family="Times New Roman" font-size="16" transform="scale(1 -1)">
  <g id="Spread" transform="translate(0 -164.555)">
   <g id="Layer 1">
    <g id="Group" stroke-linejoin="round" stroke-linecap="round" stroke="#b2b2b2" stroke-width="0.188" fill="#b2b2b2" stroke-miterlimit="79.8403193612775">
     <path d="M 443.738,24.214 L 24.624,23.814" fill="none"/>
     <path d="M 443.738,39.459 L 24.624,39.059" fill="none"/>
     <path d="M 443.738,54.705 L 24.624,54.305" fill="none"/>
     <path d="M 443.738,69.95 L 24.624,69.551" fill="none"/>
     <path d="M 443.738,85.196 L 24.624,84.797" fill="none"/>
     <path d="M 443.738,100.442 L 24.624,100.042" fill="none"/>
     <path d="M 443.738,115.687 L 24.624,115.288" fill="none"/>
     <path d="M 443.738,130.933 L 24.624,130.534" fill="none"/>
     <path d="M 443.738,146.179 L 24.624,145.78" fill="none"/>
     <path d="M 443.738,161.425 L 24.624,161.026" fill="none"/>
    </g>
    <g id="Group_1" stroke-dasharray="1.504 1.504" stroke-dashoffset="0" stroke-linejoin="round" stroke-linecap="square" stroke="#4c4c4c" stroke-width="0.188" fill="#4c4c4c" stroke-miterlimit="79.8403193612775">
     <path d="M 32.092,164.084 L 32.092,18.338" fill="none"/>
     <path d="M 90.839,164.084 L 90.839,18.338" fill="none"/>
     <path d="M 149.586,164.084 L 149.586,18.338" fill="none"/>
     <path d="M 208.333,164.084 L 208.333,18.338" fill="none"/>
     <path d="M 267.081,164.085 L 267.081,18.339" fill="none"/>
     <path d="M 325.828,164.085 L 325.828,18.339" fill="none"/>
     <path d="M 384.575,164.085 L 384.575,18.339" fill="none"/>
     <path d="M 443.323,164.086 L 443.323,18.34" fill="none"/>
    </g>
    <text xml:space="preserve" transform="translate(60.427 9.252) scale(1 -1)" font-size="8" fill="#4c4c4c" font-family="Arial" stroke-linejoin="round" stroke-linecap="round" stroke="none" stroke-width="0.252" stroke-miterlimit="79.8403193612775"><tspan x="-10.168" y="0">Июнь</tspan></text>
    <text xml:space="preserve" transform="translate(22.079 21.625) scale(1 -1)" font-size="6" fill="#4c4c4c" font-family="Arial" stroke-linejoin="round" stroke-linecap="round" stroke="none" stroke-width="0.252" stroke-miterlimit="79.8403193612775"><tspan x="-3.337" y="0">0</tspan><tspan x="-0.55" y="0" font-weight="bold" text-decoration="underline"> </tspan></text>
    <path d="M 22.646,21.025 L 22.646,21.025" fill="none" marker-end="none" marker-start="none" stroke-linecap="butt" stroke="#4c4c4c" stroke-width="0.3" stroke-miterlimit="79.8403193612775"/>
    <text xml:space="preserve" transform="translate(22.083 67.881) scale(1 -1)" font-size="6" fill="#4c4c4c" font-family="Arial" stroke-linejoin="round" stroke-linecap="round" stroke="none" stroke-width="0.252" stroke-miterlimit="79.8403193612775"><tspan x="-19.882" y="0">3 </tspan><tspan x="-15.978" y="0">м</tspan><tspan x="-12.403" y="0">л</tspan><tspan x="-9.452" y="0">н</tspan><tspan x="-6.688" y="0">. </tspan><tspan x="-4.454" y="0">р</tspan><tspan x="-1.667" y="0">.</tspan><tspan x="-0.55" y="0" font-weight="bold" text-decoration="underline"> </tspan></text>
    <path d="M 22.65,67.281 L 22.65,67.281" fill="none" marker-end="none" marker-start="none" stroke-linecap="butt" stroke="#4c4c4c" stroke-width="0.3" stroke-miterlimit="79.8403193612775"/>
    <text xml:space="preserve" transform="translate(22.084 83.299) scale(1 -1)" font-size="6" fill="#4c4c4c" font-family="Arial" stroke-linejoin="round" stroke-linecap="round" stroke="none" stroke-width="0.252" stroke-miterlimit="79.8403193612775"><tspan x="-19.882" y="0">4 </tspan><tspan x="-15.978" y="0">м</tspan><tspan x="-12.403" y="0">л</tspan><tspan x="-9.452" y="0">н</tspan><tspan x="-6.688" y="0">. </tspan><tspan x="-4.454" y="0">р</tspan><tspan x="-1.667" y="0">.</tspan><tspan x="-0.55" y="0" font-weight="bold" text-decoration="underline"> </tspan></text>
    <path d="M 22.651,82.699 L 22.651,82.699" fill="none" marker-end="none" marker-start="none" stroke-linecap="butt" stroke="#4c4c4c" stroke-width="0.3" stroke-miterlimit="79.8403193612775"/>
    <text xml:space="preserve" transform="translate(22.084 98.507) scale(1 -1)" font-size="6" fill="#4c4c4c" font-family="Arial" stroke-linejoin="round" stroke-linecap="round" stroke="none" stroke-width="0.252" stroke-miterlimit="79.8403193612775"><tspan x="-19.882" y="0">5 </tspan><tspan x="-15.978" y="0">м</tspan><tspan x="-12.403" y="0">л</tspan><tspan x="-9.452" y="0">н</tspan><tspan x="-6.688" y="0">. </tspan><tspan x="-4.454" y="0">р</tspan><tspan x="-1.667" y="0">.</tspan><tspan x="-0.55" y="0" font-weight="bold" text-decoration="underline"> </tspan></text>
    <path d="M 22.651,97.907 L 22.651,97.907" fill="none" marker-end="none" marker-start="none" stroke-linecap="butt" stroke="#4c4c4c" stroke-width="0.3" stroke-miterlimit="79.8403193612775"/>
    <text xml:space="preserve" transform="translate(22.084 113.676) scale(1 -1)" font-size="6" fill="#4c4c4c" font-family="Arial" stroke-linejoin="round" stroke-linecap="round" stroke="none" stroke-width="0.252" stroke-miterlimit="79.8403193612775"><tspan x="-19.882" y="0">6 </tspan><tspan x="-15.978" y="0">м</tspan><tspan x="-12.403" y="0">л</tspan><tspan x="-9.452" y="0">н</tspan><tspan x="-6.688" y="0">. </tspan><tspan x="-4.454" y="0">р</tspan><tspan x="-1.667" y="0">.</tspan><tspan x="-0.55" y="0" font-weight="bold" text-decoration="underline"> </tspan></text>
    <path d="M 22.651,113.076 L 22.651,113.076" fill="none" marker-end="none" marker-start="none" stroke-linecap="butt" stroke="#4c4c4c" stroke-width="0.3" stroke-miterlimit="79.8403193612775"/>
    <text xml:space="preserve" transform="translate(22.084 128.95) scale(1 -1)" font-size="6" fill="#4c4c4c" font-family="Arial" stroke-linejoin="round" stroke-linecap="round" stroke="none" stroke-width="0.252" stroke-miterlimit="79.8403193612775"><tspan x="-19.882" y="0">7 </tspan><tspan x="-15.978" y="0">м</tspan><tspan x="-12.403" y="0">л</tspan><tspan x="-9.452" y="0">н</tspan><tspan x="-6.688" y="0">. </tspan><tspan x="-4.454" y="0">р</tspan><tspan x="-1.667" y="0">.</tspan><tspan x="-0.55" y="0" font-weight="bold" text-decoration="underline"> </tspan></text>
    <path d="M 22.651,128.35 L 22.651,128.35" fill="none" marker-end="none" marker-start="none" stroke-linecap="butt" stroke="#4c4c4c" stroke-width="0.3" stroke-miterlimit="79.8403193612775"/>
    <text xml:space="preserve" transform="translate(22.084 144.341) scale(1 -1)" font-size="6" fill="#4c4c4c" font-family="Arial" stroke-linejoin="round" stroke-linecap="round" stroke="none" stroke-width="0.252" stroke-miterlimit="79.8403193612775"><tspan x="-19.882" y="0">8 </tspan><tspan x="-15.978" y="0">м</tspan><tspan x="-12.403" y="0">л</tspan><tspan x="-9.452" y="0">н</tspan><tspan x="-6.688" y="0">. </tspan><tspan x="-4.454" y="0">р</tspan><tspan x="-1.667" y="0">.</tspan><tspan x="-0.55" y="0" font-weight="bold" text-decoration="underline"> </tspan></text>
    <path d="M 22.651,143.741 L 22.651,143.741" fill="none" marker-end="none" marker-start="none" stroke-linecap="butt" stroke="#4c4c4c" stroke-width="0.3" stroke-miterlimit="79.8403193612775"/>
    <text xml:space="preserve" transform="translate(22.084 159.192) scale(1 -1)" font-size="6" fill="#4c4c4c" font-family="Arial" stroke-linejoin="round" stroke-linecap="round" stroke="none" stroke-width="0.252" stroke-miterlimit="79.8403193612775"><tspan x="-19.882" y="0">9 </tspan><tspan x="-15.978" y="0">м</tspan><tspan x="-12.403" y="0">л</tspan><tspan x="-9.452" y="0">н</tspan><tspan x="-6.688" y="0">. </tspan><tspan x="-4.454" y="0">р</tspan><tspan x="-1.667" y="0">.</tspan><tspan x="-0.55" y="0" font-weight="bold" text-decoration="underline"> </tspan></text>
    <path d="M 22.651,158.592 L 22.651,158.592" fill="none" marker-end="none" marker-start="none" stroke-linecap="butt" stroke="#4c4c4c" stroke-width="0.3" stroke-miterlimit="79.8403193612775"/>
    <text xml:space="preserve" transform="translate(22.084 37.41) scale(1 -1)" font-size="6" fill="#4c4c4c" font-family="Arial" stroke-linejoin="round" stroke-linecap="round" stroke="none" stroke-width="0.252" stroke-miterlimit="79.8403193612775"><tspan x="-19.882" y="0">1 </tspan><tspan x="-15.978" y="0">м</tspan><tspan x="-12.403" y="0">л</tspan><tspan x="-9.452" y="0">н</tspan><tspan x="-6.688" y="0">. </tspan><tspan x="-4.454" y="0">р</tspan><tspan x="-1.667" y="0">.</tspan><tspan x="-0.55" y="0" font-weight="bold" text-decoration="underline"> </tspan></text>
    <path d="M 22.651,36.81 L 22.651,36.81" fill="none" marker-end="none" marker-start="none" stroke-linecap="butt" stroke="#4c4c4c" stroke-width="0.3" stroke-miterlimit="79.8403193612775"/>
    <text xml:space="preserve" transform="translate(22.085 52.769) scale(1 -1)" font-size="6" fill="#4c4c4c" font-family="Arial" stroke-linejoin="round" stroke-linecap="round" stroke="none" stroke-width="0.252" stroke-miterlimit="79.8403193612775"><tspan x="-19.882" y="0">2 </tspan><tspan x="-15.978" y="0">м</tspan><tspan x="-12.403" y="0">л</tspan><tspan x="-9.452" y="0">н</tspan><tspan x="-6.688" y="0">. </tspan><tspan x="-4.454" y="0">р</tspan><tspan x="-1.667" y="0">.</tspan><tspan x="-0.55" y="0" font-weight="bold" text-decoration="underline"> </tspan></text>
    <path d="M 22.652,52.169 L 22.652,52.169" fill="none" marker-end="none" marker-start="none" stroke-linecap="butt" stroke="#4c4c4c" stroke-width="0.3" stroke-miterlimit="79.8403193612775"/>
    <text xml:space="preserve" transform="translate(118.354 9.252) scale(1 -1)" font-size="8" fill="#4c4c4c" font-family="Arial" stroke-linejoin="round" stroke-linecap="round" stroke="none" stroke-width="0.252" stroke-miterlimit="79.8403193612775"><tspan x="-10.205" y="0">Ию</tspan><tspan x="1.37" y="0">ль</tspan></text>
    <text xml:space="preserve" transform="translate(178.356 9.252) scale(1 -1)" font-size="8" fill="#4c4c4c" font-family="Arial" stroke-linejoin="round" stroke-linecap="round" stroke="none" stroke-width="0.252" stroke-miterlimit="79.8403193612775"><tspan x="-12.039" y="0">Авгу</tspan><tspan x="4.376" y="0">ст</tspan></text>
    <text xml:space="preserve" transform="translate(236.856 9.252) scale(1 -1)" font-size="8" fill="#4c4c4c" font-family="Arial" stroke-linejoin="round" stroke-linecap="round" stroke="none" stroke-width="0.252" stroke-miterlimit="79.8403193612775"><tspan x="-17.919" y="0">Сентябрь</tspan></text>
    <text xml:space="preserve" transform="translate(298.367 9.252) scale(1 -1)" font-size="8" fill="#4c4c4c" font-family="Arial" stroke-linejoin="round" stroke-linecap="round" stroke="none" stroke-width="0.252" stroke-miterlimit="79.8403193612775"><tspan x="-15.504" y="0">Ок</tspan><tspan x="-5.691" y="0">тябрь</tspan></text>
    <text xml:space="preserve" transform="translate(354.518 9.252) scale(1 -1)" font-size="8" fill="#4c4c4c" font-family="Arial" stroke-linejoin="round" stroke-linecap="round" stroke="none" stroke-width="0.252" stroke-miterlimit="79.8403193612775"><tspan x="-13.878" y="0">Ноябрь</tspan></text>
    <text xml:space="preserve" transform="translate(415.129 9.252) scale(1 -1)" font-size="8" fill="#4c4c4c" font-family="Arial" stroke-linejoin="round" stroke-linecap="round" stroke="none" stroke-width="0.252" stroke-miterlimit="79.8403193612775"><tspan x="-15.595" y="0">Дек</tspan><tspan x="-2.052" y="0">абрь</tspan></text>
    <path d="M 45.718,90.298 L 45.718,24.119 L 77.767,24.119 L 77.767,90.298 L 45.718,90.298 Z" fill="#6fad47" stroke="none" stroke-linecap="round" stroke-width="0.375" stroke-linejoin="miter" marker-start="none" marker-end="none" stroke-miterlimit="79.8403193612775"/>
    <path d="M 103.922,84.228 L 103.922,24.119 L 135.971,24.119 L 135.971,84.228 L 103.922,84.228 Z" fill="#6fad47" stroke="none" stroke-linecap="round" stroke-width="0.375" stroke-linejoin="miter" marker-start="none" marker-end="none" stroke-miterlimit="79.8403193612775"/>
    <path d="M 103.923,101.435 L 103.923,83.762 L 135.972,83.762 L 135.972,101.435 L 103.923,101.435 Z" fill="#3f8cdc" stroke="none" stroke-linecap="round" stroke-width="0.375" stroke-linejoin="miter" marker-start="none" marker-end="none" stroke-miterlimit="79.8403193612775"/>
    <path d="M 162.167,138.684 L 162.167,24.119 L 194.216,24.119 L 194.216,138.684 L 162.167,138.684 Z" fill="#6fad47" stroke="none" stroke-linecap="round" stroke-width="0.375" stroke-linejoin="miter" marker-start="none" marker-end="none" stroke-miterlimit="79.8403193612775"/>
    <path d="M 220.734,102.069 L 220.734,24.12 L 252.783,24.12 L 252.783,102.069 L 220.734,102.069 Z" fill="#6fad47" stroke="none" stroke-linecap="round" stroke-width="0.375" stroke-linejoin="miter" marker-start="none" marker-end="none" stroke-miterlimit="79.8403193612775"/>
    <path d="M 277.745,32.2 L 277.745,24.119 L 309.794,24.119 L 309.794,32.2 L 277.745,32.2 Z" fill="#6fad47" stroke="none" stroke-linecap="round" stroke-width="0.375" stroke-linejoin="miter" marker-start="none" marker-end="none" stroke-miterlimit="79.8403193612775"/>
    <path d="M 277.746,34.825 L 277.746,31.496 L 309.795,31.496 L 309.795,34.825 L 277.746,34.825 Z" fill="#3f8cdc" stroke="none" stroke-linecap="round" stroke-width="0.375" stroke-linejoin="miter" marker-start="none" marker-end="none" stroke-miterlimit="79.8403193612775"/>
    <path d="M 338.704,88.057 L 338.704,24.12 L 370.753,24.12 L 370.753,88.057 L 338.704,88.057 Z" fill="#6fad47" stroke="none" stroke-linecap="round" stroke-width="0.375" stroke-linejoin="miter" marker-start="none" marker-end="none" stroke-miterlimit="79.8403193612775"/>
    <path d="M 338.705,91.524 L 338.705,87.725 L 370.754,87.725 L 370.754,91.524 L 338.705,91.524 Z" fill="#970303" stroke="none" stroke-linecap="round" stroke-width="0.375" stroke-linejoin="miter" marker-start="none" marker-end="none" stroke-miterlimit="79.8403193612775"/>
    <path d="M 396.802,35.151 L 396.802,24.12 L 428.851,24.12 L 428.851,35.151 L 396.802,35.151 Z" fill="#6fad47" stroke="none" stroke-linecap="round" stroke-width="0.375" stroke-linejoin="miter" marker-start="none" marker-end="none" stroke-miterlimit="79.8403193612775"/>
    <path d="M 396.803,47.76 L 396.803,34.463 L 428.852,34.463 L 428.852,47.76 L 396.803,47.76 Z" fill="#3f8cdc" stroke="none" stroke-linecap="round" stroke-width="0.375" stroke-linejoin="miter" marker-start="none" marker-end="none" stroke-miterlimit="79.8403193612775"/>
   </g>
  </g>
 </g>
</svg>
